<?xml version="1.0" encoding="utf-8"?>
<!-- Generator: Adobe Illustrator 21.1.0, SVG Export Plug-In . SVG Version: 6.00 Build 0)  -->
<svg version="1.1" id="Layer_1" xmlns="http://www.w3.org/2000/svg" xmlns:xlink="http://www.w3.org/1999/xlink" x="0px" y="0px"
	 viewBox="0 0 348 76" style="enable-background:new 0 0 348 76;" xml:space="preserve">
<style type="text/css">
	.st0{fill:#22B173;}
	.st1{fill:#29A7DE;}
	.st2{font-family:'Cocogoose';}
	.st3{font-size:48.8656px;}
	.st4{font-family:'Gotham-Light';}
	.st5{font-size:16.4383px;}
	.st6{font-family:'Gotham-Medium';}
</style>
<g>
	<g>
		<path class="st0" d="M56.7,42.4c0-4.1,0-8.2,0-12.3c0-0.3,0-0.3,0.3-0.4c3.4-0.6,6-2.4,7.7-5.5c2.3-4.1,1.7-9.2-1.5-12.7
			c-1.8-1.9-3.9-3-6.5-3.4c-0.1,0-0.2-0.1-0.2-0.2c0-1.6,0-3.2,0-4.8C56.5,3,56.5,3,56.7,3c1,0,2,0.1,3,0.3c2.5,0.3,5,0.9,7.4,1.8
			c4.3,1.6,8.2,3.9,11.6,7c5.2,4.7,8.6,10.4,10.5,17.1c0.6,2.1,0.9,4.3,1.1,6.5c0.1,2,0.1,4-0.1,6c-0.7,6.7-3,12.8-7.2,18.2
			c-3.3,4.3-7.5,7.7-12.4,10.2c-3.1,1.6-6.4,2.6-9.9,3.2c-1.3,0.2-2.6,0.3-3.9,0.4c-0.2,0-0.3,0-0.3-0.2c0-1.6,0-3.2,0-4.8
			c0-0.2,0-0.2,0.2-0.3c2.8-0.9,4.5-2.7,4.9-5.6c0.2-1.4,0-2.8-0.7-4c-0.1-0.1-0.1-0.2,0-0.3c2.1-2.2,4.3-4.4,6.4-6.6
			c1.8-1.9,3.7-3.7,5.5-5.6c0.6-0.6,1.2-1.2,1.7-1.8c0.1-0.1,0.2-0.1,0.3-0.1c2.7,1.5,6.1,1,8.2-1.2c1.8-1.9,2.4-4.2,1.7-6.7
			c-0.7-2.5-2.5-4.1-5-4.7c-3.8-0.9-7.7,1.7-8.2,5.6c-0.2,1.4,0,2.8,0.7,4.1c0.1,0.2,0.1,0.3-0.1,0.4c-1.1,1.1-2.2,2.3-3.4,3.4
			c-2.5,2.6-5,5.1-7.5,7.7c-0.9,1-1.9,1.9-2.8,2.9c-0.1,0.1-0.1,0.1-0.2,0c-0.5-0.3-1-0.5-1.5-0.6c-0.1,0-0.1-0.1-0.1-0.2
			c0-0.1,0-0.1,0-0.2C56.7,50.7,56.7,46.6,56.7,42.4z"/>
		<path class="st1" d="M53.7,5.6c0,0.8,0,1.6,0,2.3c0,0.2-0.1,0.3-0.3,0.3c-1.6,0.3-3.1,0.9-4.5,1.8c-2.5,1.8-4.1,4.2-4.5,7.3
			c-0.5,3.7,0.6,7,3.3,9.6c1.5,1.4,3.2,2.3,5.2,2.7c0.2,0,0.2,0.1,0.2,0.3c0,8.3,0,16.7,0,25c0,0.2,0,0.2-0.2,0.3
			c-0.5,0.1-1,0.3-1.4,0.6c-0.2,0.1-0.2,0.1-0.4-0.1c-1.1-1.1-2.1-2.1-3.2-3.2c-3.5-3.5-7-7-10.5-10.5c-0.1-0.1-0.2-0.2-0.1-0.4
			c0.5-1,0.8-2,0.9-3.1c0.1-3.2-2-6.1-5.1-6.9c-3.8-1-7.6,1.5-8.3,5.3c-0.7,3.8,1.8,7.4,5.6,8c1.4,0.2,2.8,0,4.1-0.6
			c0.2-0.1,0.2-0.1,0.4,0.1c4.6,4.6,9.2,9.2,13.8,13.8c0.1,0.1,0.1,0.2,0.1,0.3c-1.3,2.7-0.8,5.8,1.4,7.9c0.9,0.9,2,1.5,3.3,1.8
			c0.1,0,0.2,0.1,0.2,0.2c0,1.6,0,3.2,0,4.8c0,0.2,0,0.2-0.2,0.2c-0.9,0-1.7-0.1-2.6-0.2c-2.1-0.3-4.1-0.7-6-1.3
			c-4.8-1.5-9.1-3.9-12.9-7.2c-4.2-3.7-7.4-8.3-9.5-13.5c-1-2.5-1.7-5-2.1-7.7c-0.3-1.8-0.4-3.5-0.4-5.3c0-6,1.4-11.7,4.3-17
			c1.5-2.8,3.4-5.3,5.6-7.6c2.8-2.9,6.1-5.3,9.7-7.1c3.1-1.5,6.3-2.6,9.6-3.1C50.6,3.2,52,3.1,53.4,3c0.3,0,0.3,0,0.3,0.3
			C53.7,4.1,53.7,4.8,53.7,5.6z"/>
	</g>
	<text transform="matrix(1 0 0 1 97.3208 49.4219)"><tspan x="0" y="0" class="st0 st2 st3">S</tspan><tspan x="32.1" y="0" class="st1 st2 st3">CRIPT</tspan><tspan x="183.6" y="0" class="st0 st2 st3">N</tspan></text>
	<text transform="matrix(1 0 0 1 99.1226 67.7207)"><tspan x="0" y="0" class="st1 st4 st5">FÁBRICA DE </tspan><tspan x="110.9" y="0" class="st1 st6 st5">SOFTWARES</tspan></text>
</g>
</svg>
